HIERARCHY
ROOT Hips
{
	OFFSET 0.000000 0.000000 0.000000 
	CHANNELS 6 Xposition Yposition Zposition Zrotation Yrotation Xrotation
	JOINT LeftUpLeg
	{
		OFFSET 1.363060 -1.794630 0.839290 
		CHANNELS 3 Zrotation Yrotation Xrotation
		JOINT LeftLeg
		{
			OFFSET 2.448110 -6.726130 0.000000 
			CHANNELS 3 Zrotation Yrotation Xrotation
			JOINT LeftFoot
			{
				OFFSET 2.562200 -7.039590 0.000000 
				CHANNELS 3 Zrotation Yrotation Xrotation
				JOINT LeftToeBase
				{
					OFFSET 0.157640 -0.433110 2.322550 
					CHANNELS 3 Zrotation Yrotation Xrotation
					End Site
					{
						OFFSET 0.000000 0.000000 0.000000 
					}
				}
			}
		}
	}
	JOINT RightUpLeg
	{
		OFFSET -1.305520 -1.794630 0.839290 
		CHANNELS 3 Zrotation Yrotation Xrotation
		JOINT RightLeg
		{
			OFFSET -2.542530 -6.985550 0.000000 
			CHANNELS 3 Zrotation Yrotation Xrotation
			JOINT RightFoot
			{
				OFFSET -2.568260 -7.056230 0.000000 
				CHANNELS 3 Zrotation Yrotation Xrotation
				JOINT RightToeBase
				{
					OFFSET -0.164730 -0.452590 2.363150 
					CHANNELS 3 Zrotation Yrotation Xrotation
					End Site
					{
						OFFSET 0.000000 0.000000 0.000000 
					}
				}
			}
		}
	}
	JOINT Spine
	{
		OFFSET 0.028270 2.035590 -0.193380 
		CHANNELS 3 Zrotation Yrotation Xrotation
		JOINT Spine1
		{
			OFFSET 0.056720 2.048850 -0.042750 
			CHANNELS 3 Zrotation Yrotation Xrotation
			JOINT Neck1
			{
				OFFSET -0.054170 1.746240 0.172020 
				CHANNELS 3 Zrotation Yrotation Xrotation
				JOINT Head
				{
					OFFSET 0.104070 1.761360 -0.123970 
					CHANNELS 3 Zrotation Yrotation Xrotation
					End Site
					{
						OFFSET 0.000000 0.000000 0.000000 
					}
				}
			}
			JOINT LeftArm
			{
				OFFSET 3.362410 1.200890 -0.311210 
				CHANNELS 3 Zrotation Yrotation Xrotation
				JOINT LeftForeArm
				{
					OFFSET 4.983000 -0.000000 -0.000000 
					CHANNELS 3 Zrotation Yrotation Xrotation
					JOINT LeftHand
					{
						OFFSET 3.483560 -0.000000 -0.000000 
						CHANNELS 3 Zrotation Yrotation Xrotation
						JOINT LeftHandIndex1
						{
							OFFSET 0.715260 -0.000000 -0.000000 
							CHANNELS 3 Zrotation Yrotation Xrotation
							End Site
							{
								OFFSET 0.000000 0.000000 0.000000 
							}
						}
					}
				}
			}
			JOINT RightArm
			{
				OFFSET -3.136600 1.374050 -0.404650 
				CHANNELS 3 Zrotation Yrotation Xrotation
				JOINT RightForeArm
				{
					OFFSET -5.241900 -0.000000 -0.000000 
					CHANNELS 3 Zrotation Yrotation Xrotation
					JOINT RightHand
					{
						OFFSET -3.444170 -0.000000 -0.000000 
						CHANNELS 3 Zrotation Yrotation Xrotation
						JOINT RightHandIndex1
						{
							OFFSET -0.622530 -0.000000 -0.000000 
							CHANNELS 3 Zrotation Yrotation Xrotation
							End Site
							{
								OFFSET 0.000000 0.000000 0.000000 
							}
						}
					}
				}
			}
		}
	}
}
MOTION
Frames: 13
Frame Time: 0.041667
18.514445 17.881133 -8.125062 4.084464 -44.132789 -0.120987 -19.212761 -5.013124 -8.770025 -0.103879 7.086015 21.512522 1.088695 -6.723943 -4.650925 0.074500 -1.760800 -4.845100 19.931451 5.784132 -10.889991 -2.841356 -10.828623 33.033183 -0.265526 -1.602836 -9.763268 -0.033600 -1.184000 3.255300 1.148594 -0.086189 -0.009461 1.048860 -0.050194 -4.030234 5.843187 -4.495234 18.402828 3.853100 -2.590700 13.188100 -84.649964 1.553007 31.759994 13.562173 -19.022752 -2.770510 -1.266147 -2.189410 11.263274 -7.125000 0.000000 0.000000 84.723843 -3.325973 19.273389 -15.256502 22.548805 -3.260683 0.381945 -0.152317 7.908906 7.125000 0.000000 0.000000 
18.503816 17.878626 -8.127067 4.078606 -44.105437 -0.129698 -19.179153 -4.809129 -8.874603 -0.082305 7.122515 21.616765 1.128363 -6.964680 -4.792647 0.094800 -1.986200 -5.467400 19.928030 5.551431 -10.940286 -2.847933 -10.832973 33.050573 -0.327065 -1.330001 -9.780856 -0.047500 -1.406300 3.867500 1.123365 -0.029437 0.024906 0.932701 -0.023192 -3.935833 5.549769 -4.542697 18.540171 3.695100 -2.634700 13.228900 -84.545760 1.388374 31.796705 13.414842 -18.800322 -2.706109 -1.250331 -2.176851 11.185016 -7.125000 0.000000 0.000000 84.775462 -3.309058 19.247606 -15.247787 22.544532 -3.259565 0.374300 -0.154064 7.794615 7.125000 0.000000 0.000000 
18.492184 17.873011 -8.129273 4.201493 -44.069040 -0.218385 -19.255746 -4.766792 -8.932228 -0.057448 7.173498 21.763069 1.153611 -7.067979 -5.018461 0.110900 -2.147600 -5.913700 19.835303 5.373728 -10.965135 -2.848159 -10.831689 33.045038 -0.352708 -1.228088 -9.825700 -0.041000 -1.306200 3.591700 1.071475 -0.005349 0.064634 0.835351 -0.012021 -3.826709 5.504564 -4.570063 18.622183 3.664800 -2.648800 13.250300 -84.467086 1.434986 31.506401 13.483919 -18.909399 -2.737043 -1.231314 -2.150413 11.421608 -7.125000 0.000000 0.000000 84.821442 -3.396925 19.528259 -15.347152 22.691527 -3.305346 0.372680 -0.150353 7.479936 7.125000 0.000000 0.000000 
18.480252 17.866694 -8.130777 4.233054 -44.069984 -0.268672 -19.274516 -5.074061 -8.829726 -0.037028 7.234456 21.939382 1.117731 -6.735480 -5.129431 0.126800 -2.295700 -6.323500 19.839181 5.351470 -10.873540 -2.839411 -10.817908 33.001339 -0.361167 -1.205911 -9.884256 -0.030700 -1.131200 3.109800 1.060069 -0.015215 0.085800 0.801387 -0.016945 -3.791322 5.496011 -4.497686 18.763028 3.674400 -2.623500 13.294100 -84.489779 1.561817 31.083455 13.563790 -19.037297 -2.767819 -1.323522 -2.106109 11.657104 -7.125000 0.000000 0.000000 84.795882 -3.516355 19.836222 -15.427567 22.805876 -3.341144 0.376410 -0.148442 7.259544 7.125000 0.000000 0.000000 
18.469022 17.862382 -8.132181 3.995283 -44.001748 -0.110766 -19.075240 -5.559299 -8.698059 -0.020162 7.297393 22.115895 1.072972 -6.315768 -5.218427 0.147500 -2.474800 -6.819800 20.055133 5.278618 -10.811794 -2.829321 -10.799600 32.948545 -0.374495 -1.151447 -9.914253 -0.025100 -1.023200 2.812700 1.065052 0.011252 0.088327 0.662882 -0.005946 -3.784549 5.336352 -4.513296 19.020920 3.587600 -2.643800 13.412400 -84.424475 1.622556 30.831695 13.578160 -19.066814 -2.771838 -1.394545 -2.058274 11.761914 -7.125000 0.000000 0.000000 84.859964 -3.598719 19.773690 -15.470556 22.868690 -3.360621 0.375187 -0.142561 7.188569 7.125000 0.000000 0.000000 
18.458192 17.856867 -8.136794 3.798085 -43.919689 -0.011377 -18.882840 -5.738356 -8.687257 0.008176 7.369107 22.315932 1.078810 -6.224799 -5.438910 0.175300 -2.697200 -7.436700 20.251627 5.222690 -10.714132 -2.818683 -10.779163 32.891039 -0.387156 -1.092423 -9.916728 -0.024000 -1.000500 2.750300 1.059096 0.056049 0.110081 0.545859 0.013268 -3.766301 5.303509 -4.570036 19.207214 3.564600 -2.673300 13.496100 -84.242611 1.620963 30.900432 13.615993 -19.133346 -2.792265 -1.394136 -2.020443 11.560643 -7.125000 0.000000 0.000000 84.953821 -3.572214 19.666820 -15.445960 22.843672 -3.352528 0.368431 -0.154591 7.108947 7.125000 0.000000 0.000000 
18.444556 17.850349 -8.140905 3.904523 -43.934018 -0.066496 -18.900926 -5.561274 -8.879747 0.052119 7.452373 22.556895 1.123802 -6.493783 -5.604107 0.179500 -2.728800 -7.524600 20.214478 5.264630 -10.644667 -2.801921 -10.752487 32.806981 -0.391709 -1.071588 -9.916887 -0.018200 -0.870900 2.393600 1.062383 0.079694 0.119232 0.623711 0.025558 -3.742477 5.480188 -4.513258 19.176252 3.699800 -2.662100 13.414100 -84.181993 1.675824 30.981428 13.654925 -19.201543 -2.811279 -1.397820 -2.030038 11.400837 -7.125000 0.000000 0.000000 84.891844 -3.660443 19.889982 -15.467576 22.891758 -3.368004 0.354086 -0.183736 6.917237 7.125000 0.000000 0.000000 
18.432323 17.844634 -8.147122 3.969779 -43.881350 -0.098299 -18.909680 -5.640776 -8.986493 0.090971 7.533729 22.798125 1.114118 -6.514722 -5.445995 0.166600 -2.629800 -7.249800 20.198341 5.210076 -10.611601 -2.784979 -10.723301 32.715640 -0.416129 -0.951720 -9.886796 -0.018600 -0.879900 2.418500 1.057675 0.094816 0.140684 0.643174 0.032390 -3.694814 5.624161 -4.494101 19.205288 3.807900 -2.665600 13.382100 -84.194265 1.787579 30.822775 13.787661 -19.406511 -2.868383 -1.396570 -2.085606 11.682403 -7.125000 0.000000 0.000000 84.862409 -3.731859 19.989059 -15.499003 22.946695 -3.384919 0.347689 -0.198616 6.944506 7.125000 0.000000 0.000000 
18.420390 17.842629 -8.151433 3.676910 -43.852226 0.006838 -18.674424 -5.887546 -8.923922 0.130554 7.623453 23.065020 1.065614 -6.299243 -5.092263 0.116700 -2.202200 -6.064800 20.464575 5.112232 -10.421045 -2.764948 -10.684122 32.602571 -0.457328 -0.758774 -9.881386 -0.026100 -1.042500 2.865700 1.063242 0.176008 0.160772 0.497987 0.070560 -3.736169 5.560468 -4.588570 19.463490 3.753200 -2.707800 13.517500 -84.114881 1.891613 30.565682 13.925992 -19.619099 -2.928377 -1.389977 -2.125784 12.054085 -7.125000 0.000000 0.000000 84.966362 -3.765655 19.771242 -15.472027 22.908328 -3.372335 0.349524 -0.197137 7.191792 7.125000 0.000000 0.000000 
18.407355 17.837214 -8.152536 3.392605 -43.959317 0.081772 -18.462766 -6.175542 -8.848256 0.187142 7.753747 23.443801 1.027906 -5.968544 -5.147205 0.090100 -1.935500 -5.327500 20.732277 5.076353 -10.138797 -2.726245 -10.618772 32.403066 -0.478572 -0.668424 -9.918838 -0.019300 -0.896400 2.463800 1.089088 0.296587 0.193488 0.385739 0.126739 -3.761638 5.550304 -4.670970 19.671006 3.744000 -2.750300 13.631700 -84.084238 1.926282 30.350693 13.982939 -19.701255 -2.953169 -1.348029 -2.147592 12.035533 -7.125000 0.000000 0.000000 84.974596 -3.818614 19.739216 -15.496421 22.942665 -3.382877 0.350647 -0.191581 7.067054 7.125000 0.000000 0.000000 
18.396125 17.829192 -8.156447 3.014291 -43.967639 0.222164 -18.163457 -6.490493 -8.835838 0.258830 7.918161 23.915511 1.003749 -5.601591 -5.473989 0.143800 -2.444200 -6.735000 21.100988 4.938582 -9.891021 -2.673389 -10.531900 32.135019 -0.473388 -0.688717 -9.922960 -0.010500 -0.662700 1.821100 1.142878 0.340527 0.235725 0.289759 0.144222 -3.770910 5.575555 -4.639216 19.773982 3.785000 -2.752500 13.649600 -84.184988 2.111625 29.840117 14.173271 -19.975472 -3.039828 -1.282989 -2.132610 11.964578 -7.125000 0.000000 0.000000 84.919198 -3.843832 19.988870 -15.523044 22.980037 -3.395250 0.351814 -0.185714 6.699686 7.125000 0.000000 0.000000 
18.380482 17.825081 -8.164669 2.322720 -43.951456 0.500362 -17.591806 -6.631870 -8.838774 0.341363 8.086362 24.405376 0.989626 -5.457371 -5.432164 0.125100 -2.279800 -6.279600 21.780797 4.836115 -9.520376 -2.622038 -10.443664 31.873463 -0.454336 -0.778169 -9.956891 -0.007000 -0.541700 1.488500 1.257615 0.333724 0.267435 0.249228 0.136198 -3.852599 5.486670 -4.502370 19.989808 3.777800 -2.718000 13.722700 -84.209242 2.336999 29.625384 14.314646 -20.188386 -3.107034 -1.259408 -2.118093 11.661707 -7.125000 0.000000 0.000000 84.848346 -3.870244 20.170014 -15.465858 22.902602 -3.372042 0.345884 -0.192231 6.820083 7.125000 0.000000 0.000000 
18.361030 17.821070 -8.171588 1.882500 -44.046699 0.633685 -17.222403 -6.491288 -8.960127 0.433545 8.257802 24.912284 0.997540 -5.503607 -5.386036 0.068500 -1.688100 -4.644400 22.255912 4.859360 -9.135040 -2.579051 -10.368445 31.651909 -0.437659 -0.851214 -9.968881 -0.005500 -0.477600 1.312300 1.334100 0.412436 0.315184 0.259927 0.171254 -3.853408 5.373076 -4.447851 20.156162 3.739300 -2.713700 13.788400 -83.826552 2.112747 31.206201 14.045249 -19.817247 -2.995576 -1.296632 -2.143227 9.843723 -7.125000 0.000000 0.000000 84.837556 -3.835973 19.992652 -15.402154 22.818639 -3.345195 0.341109 -0.198627 7.290219 7.125000 0.000000 0.000000 
